{"title":"Every.Day.2010.DvDRip.x264.Feel-Free","uid":6176333,"size":839475287,"categoryP":"video","categoryS":"movies","magnet":"?xt=urn:btih:e3523fbba3c738a16e00ec08774a6dbe9f17e07b&amp;dn=Every.Day.2010.DvDRip.x264.Feel-Free&amp;tr=udp%3A%2F%2Ftracker.openbittorrent.com%3A80&amp;tr=udp%3A%2F%2Fopen.demonii.com%3A1337&amp;tr=udp%3A%2F%2Ftracker.coppersurfer.tk%3A6969&amp;tr=udp%3A%2F%2Fexodus.desync.com%3A6969","seeders":0,"leechers":0,"uploader":"hiest","files":-1,"time":1297783723,"description":"Genre:Comedy | Drama\nLanguage: English\nIMDB:http://www.imdb.com/title/tt1301990/\nSource:PAL.DVDR-TV2LAX9\nSubtitles:Romana\n\n\nFormat : MPEG-4\nFormat profile : Base Media\nCodec ID : isom\nFile size : 799 MiB\nDuration : 1h 29mn\nOverall bit rate : 1 249 Kbps\nMovie name : Every.Day.2010.DvDRip.x264.Feel-Free\n\n\nVideo\nFormat settings, CABAC : Yes\nFormat settings, ReFrames : 4 frames\nCodec ID : avc1\nCodec ID/Info : Advanced Video Coding\nDuration : 1h 29mn\nBit rate mode : Variable\nBit rate : 856 Kbps\nWidth : 720 pixels\nHeight : 400 pixels\nDisplay aspect ratio : 16:9\nFrame rate mode : Constant\nFrame rate : 25.000 fps\nColor space : YUV\nChroma subsampling : 4:2:0\nBit depth : 8 bits\nScan type : Progressive\nBits/(Pixel*Frame) : 0.119\nStream size : 550 MiB (69%)\nWriting library : x264\n\nAudio\nID : 2\nFormat : AAC\nFormat/Info : Advanced Audio Codec\nFormat version : Version 4\nFormat profile : LC\nCodec ID : 40\nDuration : 1h 29mn\nBit rate mode : Variable\nBit rate : 384 Kbps\nChannel(s) : 6 channels\nChannel positions : Front: L C R, Side: L R, LFE\nSampling rate : 48.0 KHz\nStream size : 245 MiB (31%)\n\n\nPlot:\nA comedy about a New York City couple (Schreiber and Hunt) in romantic crisis.","torrent":{"xt":"urn:btih:e3523fbba3c738a16e00ec08774a6dbe9f17e07b","amp;dn":"Every.Day.2010.DvDRip.x264.Feel-Free","amp;tr":["udp%3A%2F%2Ftracker.openbittorrent.com%3A80","udp%3A%2F%2Fopen.demonii.com%3A1337","udp%3A%2F%2Ftracker.coppersurfer.tk%3A6969","udp%3A%2F%2Fexodus.desync.com%3A6969"],"infoHash":"e3523fbba3c738a16e00ec08774a6dbe9f17e07b","infoHashBuffer":{"type":"Buffer","data":[227,82,63,187,163,199,56,161,110,0,236,8,119,74,109,190,159,23,224,123]},"announce":[],"urlList":[]}}